HIERARCHY
ROOT Hips
{
	OFFSET -0.001795 -0.223333 0.028219
	CHANNELS 6 Xposition Yposition Zposition Zrotation Yrotation Xrotation 
	JOINT LeftUpLeg
	{
		OFFSET 0.069520 -0.091406 -0.006815
		CHANNELS 3 Zrotation Yrotation Xrotation
		JOINT LeftLeg
		{
			OFFSET 0.034277 -0.375199 -0.004496
			CHANNELS 3 Zrotation Yrotation Xrotation
			JOINT LeftFoot
			{
				OFFSET -0.013596 -0.397961 -0.043693
				CHANNELS 3 Zrotation Yrotation Xrotation
				JOINT LeftToe
				{
					OFFSET 0.026358 -0.055791 0.119288
					CHANNELS 3 Zrotation Yrotation Xrotation
					End Site
					{
						OFFSET 0.000000 0.000000 0.000000
					}
				}
			}
		}
	}
	JOINT RightUpLeg
	{
		OFFSET -0.067670 -0.090522 -0.004320
		CHANNELS 3 Zrotation Yrotation Xrotation
		JOINT RightLeg
		{
			OFFSET -0.038290 -0.382569 -0.008850
			CHANNELS 3 Zrotation Yrotation Xrotation
			JOINT RightFoot
			{
				OFFSET 0.015774 -0.398415 -0.042312
				CHANNELS 3 Zrotation Yrotation Xrotation
				JOINT RightToe
				{
					OFFSET -0.025372 -0.048144 0.123348
					CHANNELS 3 Zrotation Yrotation Xrotation
					End Site
					{
						OFFSET 0.000000 0.000000 0.000000
					}
				}
			}
		}
	}
	JOINT Spine
	{
		OFFSET -0.002533 0.108963 -0.026696
		CHANNELS 3 Zrotation Yrotation Xrotation
		JOINT Spine1
		{
			OFFSET 0.005487 0.135180 0.001092
			CHANNELS 3 Zrotation Yrotation Xrotation
			JOINT Spine2
			{
				OFFSET 0.001457 0.052922 0.025425
				CHANNELS 3 Zrotation Yrotation Xrotation
				JOINT Neck
				{
					OFFSET -0.002778 0.213870 -0.042857
					CHANNELS 3 Zrotation Yrotation Xrotation
					JOINT Head
					{
						OFFSET 0.005152 0.064970 0.051349
						CHANNELS 3 Zrotation Yrotation Xrotation
						End Site
						{
							OFFSET 0.000000 0.000000 0.000000
						}
					}
				}
				JOINT LeftShoulder
				{
					OFFSET 0.078845 0.121749 -0.034090
					CHANNELS 3 Zrotation Yrotation Xrotation
					JOINT LeftArm
					{
						OFFSET 0.090977 0.030469 -0.008868
						CHANNELS 3 Zrotation Yrotation Xrotation
						JOINT LeftForeArm
						{
							OFFSET 0.259612 -0.012772 -0.027456
							CHANNELS 3 Zrotation Yrotation Xrotation
							JOINT LeftHand
							{
								OFFSET 0.249234 0.008986 -0.001171
								CHANNELS 3 Zrotation Yrotation Xrotation
								End Site
								{
									OFFSET 0.000000 0.000000 0.000000
								}
							}
						}
					}
				}
				JOINT RightShoulder
				{
					OFFSET -0.081759 0.118833 -0.038615
					CHANNELS 3 Zrotation Yrotation Xrotation
					JOINT RightArm
					{
						OFFSET -0.096012 0.032551 -0.009143
						CHANNELS 3 Zrotation Yrotation Xrotation
						JOINT RightForeArm
						{
							OFFSET -0.253742 -0.013329 -0.021401
							CHANNELS 3 Zrotation Yrotation Xrotation
							JOINT RightHand
							{
								OFFSET -0.255298 0.007772 -0.005559
								CHANNELS 3 Zrotation Yrotation Xrotation
								End Site
								{
									OFFSET 0.000000 0.000000 0.000000
								}
							}
						}
					}
				}
			}
		}
	}
}
MOTION
Frames: 16
Frame Time: 0.050000
0.000000 0.909960 0.000000 -2.295165 -22.197318 9.356109 6.076044 1.991346 -38.739168 -9.008530 3.063745 17.059750 11.510610 19.533963 19.529162 0.000000 0.000000 0.000000 5.246146 -0.145979 -1.899044 2.789445 1.356360 21.559513 -5.758170 -9.565258 -6.102865 0.000000 0.000000 0.000000 0.760432 -0.312719 8.858373 -4.770855 1.469188 -27.548002 0.635672 18.335964 28.753043 11.779225 -3.365544 -32.067521 0.000000 0.000000 0.000000 -9.571714 -2.923089 0.381019 -56.939168 -3.825239 -7.512764 3.106537 -21.708032 0.428921 0.000000 0.000000 0.000000 18.940626 -3.410939 -2.007098 67.626421 11.254755 -2.586245 6.556149 33.141513 4.137177 0.000000 0.000000 0.000000 
-0.012312 0.914076 0.033482 -2.637768 -20.159725 9.926456 7.192545 1.930735 -37.820125 -10.431638 3.580832 18.161544 11.397648 19.717698 19.542720 0.000000 0.000000 0.000000 4.953375 0.242931 -4.571627 5.147590 1.372880 28.421764 -3.968567 -8.127935 -2.105196 0.000000 0.000000 0.000000 0.088555 -0.224840 7.144967 -3.804754 1.269012 -26.918841 -0.238322 17.693273 28.306919 11.733426 -3.275854 -31.824354 0.000000 0.000000 0.000000 -9.362644 -1.953454 -0.145771 -56.574236 -3.144747 -7.816063 2.474912 -20.286998 0.466131 0.000000 0.000000 0.000000 19.791814 -4.535508 -2.572050 66.952059 8.290972 -4.268285 10.081599 34.382677 5.408379 0.000000 0.000000 0.000000 
-0.023859 0.922810 0.066789 -2.141161 -18.200579 9.268638 6.031029 0.913287 -35.511145 -10.207562 3.657496 20.036400 10.775988 19.456675 16.674275 0.000000 0.000000 0.000000 1.525902 0.912047 -9.073270 10.600495 0.181642 39.364106 -3.009641 -9.216554 3.858260 0.000000 0.000000 0.000000 -0.104518 -0.207952 7.030061 -5.189292 1.585773 -26.762482 -0.128347 15.723259 28.493589 11.052425 -2.868025 -32.682894 0.000000 0.000000 0.000000 -9.693790 -3.281016 0.497414 -56.920204 -1.930637 -8.358119 2.680732 -22.119591 0.487983 0.000000 0.000000 0.000000 19.246111 -4.837271 -2.829217 66.882247 5.959842 -5.614184 11.550192 34.198242 5.769572 0.000000 0.000000 0.000000 
-0.035047 0.930381 0.098909 -2.735519 -17.801920 9.494703 6.801389 0.935164 -33.427813 -10.949451 3.861007 19.591211 10.603261 19.324871 16.230402 0.000000 0.000000 0.000000 -0.178363 1.611055 -14.537033 15.157170 -1.507645 48.461463 -4.587232 -14.520708 10.752462 0.000000 0.000000 0.000000 0.617222 -0.261855 6.126034 -5.613554 1.685092 -26.584583 -0.550035 15.879272 27.634022 11.289450 -2.996803 -32.147563 0.000000 0.000000 0.000000 -8.611116 -3.556584 0.628113 -56.968157 -1.269240 -8.617007 0.743599 -22.657509 0.836255 0.000000 0.000000 0.000000 19.173557 -5.507382 -3.157298 67.586755 4.269043 -6.464942 12.350135 33.159883 5.780824 0.000000 0.000000 0.000000 
-0.046959 0.936596 0.129758 -3.598315 -16.376515 8.461980 7.198360 0.596002 -29.325037 -9.886895 3.368943 19.190764 9.819724 18.463649 14.568811 0.000000 0.000000 0.000000 -2.362990 1.989801 -18.513349 19.242878 -4.180703 53.345164 -6.922652 -18.799932 12.561183 0.000000 0.000000 0.000000 0.835159 -0.314536 6.964904 -4.871867 1.537962 -26.803652 -1.227859 14.667994 28.164826 12.201633 -3.500765 -32.469042 0.000000 0.000000 0.000000 -9.744095 -3.778645 0.712766 -55.710371 -1.615031 -8.323368 0.512554 -24.135448 0.962186 0.000000 0.000000 0.000000 18.939569 -5.745888 -3.317146 67.978539 3.744104 -6.881072 12.215813 32.923730 5.702825 0.000000 0.000000 0.000000 
-0.059132 0.941949 0.159372 -4.833029 -15.759483 7.824538 8.432482 0.641036 -25.516630 -9.588174 3.181193 18.610287 8.941386 17.355084 12.317883 0.000000 0.000000 0.000000 -3.690811 2.237793 -21.520953 20.597378 -5.264132 53.938987 -8.221653 -21.125080 14.372658 0.000000 0.000000 0.000000 1.926734 -0.422835 7.008443 -5.236373 1.619820 -26.693876 -1.216761 13.602761 28.099782 12.389842 -3.658979 -32.807332 0.000000 0.000000 0.000000 -10.420504 -3.587640 0.694945 -55.522704 -2.283999 -7.978618 -0.288352 -25.121889 1.223663 0.000000 0.000000 0.000000 19.119274 -5.500761 -3.367545 67.324618 3.011880 -7.318747 12.038735 32.815925 5.548854 0.000000 0.000000 0.000000 
-0.071500 0.945334 0.186913 -5.601148 -14.087845 6.876988 8.609218 0.379464 -21.997898 -8.680518 2.686702 17.811814 8.650569 17.162050 10.905222 0.000000 0.000000 0.000000 -4.527343 2.167965 -22.271681 19.943398 -5.318283 50.932415 -8.508096 -21.547811 12.840757 0.000000 0.000000 0.000000 2.579295 -0.485752 7.055822 -4.964879 1.577935 -26.653763 -1.101072 12.294960 28.193350 12.493148 -3.915873 -32.012595 0.000000 0.000000 0.000000 -10.863345 -3.725691 0.776057 -55.372908 -2.506191 -7.869678 -0.877045 -25.744335 1.403879 0.000000 0.000000 0.000000 19.147852 -5.810291 -3.595513 66.284787 2.343941 -7.654203 12.360060 32.405636 5.528182 0.000000 0.000000 0.000000 
-0.083916 0.948302 0.211578 -6.265254 -12.731810 6.012879 9.222360 0.295511 -18.623745 -8.055046 2.262194 16.307643 8.514708 17.098153 10.686564 0.000000 0.000000 0.000000 -5.136345 2.019101 -22.165118 17.267708 -4.065143 45.030541 -8.326032 -21.201969 10.945124 0.000000 0.000000 0.000000 2.968283 -0.516326 6.998282 -4.337446 1.440890 -26.085867 -1.191009 11.242893 27.676752 12.633386 -3.996248 -32.117519 0.000000 0.000000 0.000000 -12.024915 -4.171346 0.931410 -54.635525 -3.025432 -7.497217 -1.271160 -26.116749 1.507457 0.000000 0.000000 0.000000 19.809979 -5.789558 -3.690114 64.803463 2.118057 -7.652891 12.098359 32.701423 5.471805 0.000000 0.000000 0.000000 
-0.096327 0.949805 0.232968 -6.630804 -11.770336 5.907625 9.610136 0.254059 -16.824555 -8.004313 2.161305 15.946041 8.417056 17.078941 9.807790 0.000000 0.000000 0.000000 -5.342723 1.926248 -21.894167 13.169875 -2.270823 37.406495 -7.171284 -18.932580 8.217138 0.000000 0.000000 0.000000 3.499875 -0.525937 6.369686 -4.584499 1.504982 -25.652137 -0.937061 10.213913 27.348753 12.768640 -4.110014 -32.179372 0.000000 0.000000 0.000000 -12.329351 -4.539439 1.151917 -54.581845 -3.749011 -7.123441 -1.807663 -26.435832 1.667512 0.000000 0.000000 0.000000 19.901386 -5.473687 -3.639000 63.319266 1.656783 -7.740030 13.054626 32.911828 5.709278 0.000000 0.000000 0.000000 
-0.109078 0.950400 0.251861 -6.537545 -10.887709 5.640823 9.667508 0.168958 -14.935763 -7.637145 1.948476 15.233005 8.194379 16.829113 8.661319 0.000000 0.000000 0.000000 -5.725250 1.765307 -21.120147 9.442648 -1.051184 28.485508 -5.732766 -15.799854 6.244493 0.000000 0.000000 0.000000 3.800238 -0.545468 6.315119 -4.241545 1.447752 -26.432451 -1.145596 9.476104 27.760422 12.788062 -4.103801 -32.587332 0.000000 0.000000 0.000000 -12.579050 -4.405617 1.119626 -54.226825 -4.559011 -6.769151 -1.818128 -27.010394 1.727049 0.000000 0.000000 0.000000 19.415270 -5.594531 -3.680584 62.830469 1.570755 -7.795028 13.545433 33.295466 5.931664 0.000000 0.000000 0.000000 
-0.122360 0.949098 0.269047 -6.319311 -9.656545 5.893695 9.998631 0.129282 -13.853830 -6.969105 1.646981 14.483244 7.256500 15.292180 6.291388 0.000000 0.000000 0.000000 -6.667798 1.651734 -21.711436 6.344985 -0.397669 20.376647 -3.382915 -11.677462 8.669876 0.000000 0.000000 0.000000 4.606310 -0.573449 5.766353 -4.106386 1.426748 -26.734025 -1.567671 9.517877 27.511295 12.865131 -4.156847 -31.858244 0.000000 0.000000 0.000000 -11.335059 -5.134049 1.371589 -55.443708 -5.281854 -6.579132 -2.295769 -28.329474 1.898540 0.000000 0.000000 0.000000 20.552091 -5.724811 -3.665438 61.613241 1.569467 -7.685920 12.217505 34.290534 5.813023 0.000000 0.000000 0.000000 
-0.136483 0.946099 0.285030 -5.660960 -7.944485 6.000162 9.984354 0.029071 -12.795777 -6.713774 1.430431 13.324682 6.939026 14.796048 5.697549 0.000000 0.000000 0.000000 -7.012048 1.442353 -20.496699 3.825569 -0.061779 13.784425 -1.357047 -8.089213 10.356223 0.000000 0.000000 0.000000 5.363081 -0.521920 4.429644 -4.565175 1.544420 -25.527250 -1.975298 9.400678 26.226298 13.073368 -4.251488 -30.863075 0.000000 0.000000 0.000000 -11.504484 -6.080080 1.598391 -55.892019 -5.412173 -6.453259 -1.173887 -28.647865 1.559884 0.000000 0.000000 0.000000 20.835207 -5.643420 -3.412390 61.395647 1.573255 -7.522319 11.044294 33.685602 5.388174 0.000000 0.000000 0.000000 
-0.151638 0.942625 0.299329 -4.611050 -5.495132 5.823621 9.852684 -0.084180 -12.699737 -6.636155 1.335236 14.057849 6.498729 14.068160 5.205993 0.000000 0.000000 0.000000 -7.864633 1.109976 -18.359929 3.802045 -0.184332 11.504493 -1.012709 -7.482307 11.457914 0.000000 0.000000 0.000000 5.569277 -0.456442 3.507126 -5.073042 1.692536 -25.232389 -2.236116 8.906240 25.741352 13.012450 -4.226454 -29.939416 0.000000 0.000000 0.000000 -11.512098 -6.988208 1.807197 -56.084410 -5.630648 -6.343910 -0.712295 -28.499076 1.351794 0.000000 0.000000 0.000000 21.102101 -5.889314 -3.285339 61.874587 1.944397 -7.322251 9.711058 33.080240 4.985465 0.000000 0.000000 0.000000 
-0.167417 0.940481 0.310733 -4.157708 -3.799318 5.945377 10.562103 -0.088968 -12.078919 -6.717282 1.257430 13.564336 6.781805 14.662119 5.347658 0.000000 0.000000 0.000000 -8.130204 0.970605 -17.404937 4.200917 -0.307313 11.447229 -1.722019 -8.257154 10.263609 0.000000 0.000000 0.000000 6.347011 -0.417928 2.608934 -5.345551 1.776483 -25.262671 -2.222453 8.479091 25.955743 13.041232 -4.072495 -30.395858 0.000000 0.000000 0.000000 -12.002786 -6.909942 1.629792 -56.961943 -5.164238 -6.684348 -0.306561 -29.399705 1.267607 0.000000 0.000000 0.000000 20.754971 -5.816815 -3.031755 61.755003 2.305391 -7.133004 10.137773 32.907884 5.136199 0.000000 0.000000 0.000000 
-0.182447 0.940876 0.319093 -3.670713 -3.064831 6.147844 10.871035 -0.099302 -11.722664 -6.655505 1.195794 13.166607 7.257372 15.603381 6.176632 0.000000 0.000000 0.000000 -8.360974 0.885415 -16.499916 4.816246 -0.455340 9.837882 -2.309964 -9.331864 10.324309 0.000000 0.000000 0.000000 6.882092 -0.372206 1.855981 -5.539633 1.832544 -25.108940 -2.236227 8.798576 25.837656 12.190235 -3.500132 -30.314778 0.000000 0.000000 0.000000 -11.957909 -6.535331 1.313828 -57.507626 -4.573679 -7.030061 -0.359119 -29.821228 1.246289 0.000000 0.000000 0.000000 20.802106 -5.442023 -2.607245 61.692743 3.201767 -6.654653 9.261466 32.148175 4.791146 0.000000 0.000000 0.000000 
-0.195966 0.942213 0.325534 -3.287789 -2.095541 6.707719 11.143942 -0.131978 -11.395233 -6.348990 1.034308 11.572414 7.292644 15.817225 7.763223 0.000000 0.000000 0.000000 -8.079559 0.873219 -16.175611 5.034566 -0.518451 9.249586 -3.103639 -10.637950 9.784245 0.000000 0.000000 0.000000 7.593554 -0.291519 0.688241 -5.514985 1.842562 -24.812190 -2.396734 8.843321 25.869549 11.965587 -3.356513 -29.905299 0.000000 0.000000 0.000000 -12.301782 -6.752774 1.265724 -58.876960 -3.641112 -7.664618 0.596672 -29.098402 0.942364 0.000000 0.000000 0.000000 20.636575 -5.121633 -2.244508 61.568633 4.086086 -6.176248 9.043331 31.644286 4.669938 0.000000 0.000000 0.000000 
